<?xml version="1.0" encoding="UTF-8"?>
<svg width="224px" height="212px" viewBox="0 0 224 212" version="1.1" xmlns="http://www.w3.org/2000/svg" xmlns:xlink="http://www.w3.org/1999/xlink">
    <!-- Generator: Sketch 43.2 (39069) - http://www.bohemiancoding.com/sketch -->
    <title>oblique stratagies</title>
    <desc>Created with Sketch.</desc>
    <defs></defs>
    <g id="Page-1" stroke="none" stroke-width="1" fill="none" fill-rule="evenodd">
        <g id="oblique-stratagies">
            <path d="M47.6470172,61.2983943 C65.1165899,37.7144711 98.6515233,45.8390088 119.033003,45.8390088 C139.414483,45.8390088 170.885063,41.9905926 183.143985,61.2983943 C195.402906,80.6061961 173.595541,113.170222 173.595541,131.775005 C173.595541,150.379788 186.437396,201.187804 186.437396,201.187804 C188.63637,210.313314 182.806019,217.711001 173.409898,217.711001 L64.656109,217.711001 C55.262247,217.711001 48.329585,210.122452 49.169542,200.784108 L55.3767099,131.775005 C55.3767099,131.775005 30.1774444,84.8823176 47.6470172,61.2983943 Z" id="Rectangle-6" fill="#C49E77"></path>
            <ellipse id="Oval-2" fill="#A9A1A1" cx="115.395501" cy="91.7624776" rx="57.7453519" ry="60.4734788"></ellipse>
            <path d="M115.395501,152.235956 C147.287378,152.235956 173.140853,125.161058 173.140853,91.7624776 C173.140853,58.3638975 147.287378,31.2889988 115.395501,31.2889988 C83.5036237,31.2889988 148.587711,58.3638975 148.587711,91.7624776 C148.587711,125.161058 83.5036237,152.235956 115.395501,152.235956 Z" id="Oval-2" fill="#D8D1C4"></path>
            <rect id="Rectangle-2" fill="#979292" x="54.9220221" y="75.8484043" width="49.1062835" height="30.9187711" rx="15.4593856"></rect>
            <rect id="Rectangle-3" fill="#9A82C3" x="61.2876515" y="131.320317" width="112.762577" height="86.390684" rx="17"></rect>
            <rect id="Rectangle-3" fill="#846BAF" x="61.2876515" y="131.320317" width="30.0093955" height="86.390684" rx="15.0046977"></rect>
        </g>
    </g>
</svg>