<?xml version="1.0" encoding="UTF-8"?>
<svg width="1024px" height="1024px" viewBox="0 0 1024 1024" version="1.1" xmlns="http://www.w3.org/2000/svg" xmlns:xlink="http://www.w3.org/1999/xlink">
    <!-- Generator: Sketch 43.2 (39069) - http://www.bohemiancoding.com/sketch -->
    <title>oblique stratagies</title>
    <desc>Created with Sketch.</desc>
    <defs>
        <rect id="path-1" x="266" y="247" width="493" height="310" rx="17"></rect>
        <path d="M260.643337,605.155707 C262.172943,595.889538 271.031717,588.377823 280.419474,588.377823 L744.123732,588.377823 C753.516185,588.377823 762.262673,595.912159 763.657873,605.195014 L784.472399,743.682809 C785.868355,752.970687 779.380713,760.5 770.007698,760.5 L251.992302,760.5 C242.607713,760.5 236.239138,752.993448 237.769596,743.722116 L260.643337,605.155707 Z" id="path-2"></path>
    </defs>
    <g id="Page-1" stroke="none" stroke-width="1" fill="none" fill-rule="evenodd">
        <g id="oblique-stratagies">
            <rect id="Rectangle-4" fill="#FCCEA0" x="0" y="546" width="1024" height="478"></rect>
            <polygon id="Rectangle-4" fill="#C59E77" points="0 546 1024 546 1024 937.5"></polygon>
            <path d="M806,884 C825.210514,858.065807 862.087391,867 884.5,867 C906.912609,867 941.519408,862.768068 955,884 C968.480592,905.231932 944.5,941.041146 944.5,961.5 C944.5,981.958854 959.008552,1039.47402 959.008552,1039.47402 C961.212968,1048.60107 955.387786,1056 945.993004,1056 L823.006996,1056 C813.614291,1056 806.681222,1048.42641 807.522082,1039.07803 L814.5,961.5 C814.5,961.5 786.789486,909.934193 806,884 Z" id="Rectangle-6" fill="#C49E77"></path>
            <path d="M232.44176,585.052427 C234.683064,575.935046 244.117738,568.543949 253.506552,568.543949 L769.493448,568.543949 C778.885907,568.543949 788.102002,575.977139 790.080937,585.159276 L846.919063,848.884673 C848.89676,858.061065 842.887529,865.5 833.496502,865.5 L180.503498,865.5 C171.112725,865.5 165.318156,858.103939 167.55824,848.991521 L232.44176,585.052427 Z" id="Rectangle" fill="#C49E77"></path>
            <rect id="Rectangle-4" fill="#83C9E5" x="0" y="-24" width="1024" height="571"></rect>
            <rect id="Rectangle" fill="#AEACAC" x="237" y="215" width="551" height="387" rx="17"></rect>
            <rect id="Rectangle" fill="#8F8F8F" x="246" y="221" width="534" height="375" rx="17"></rect>
            <g id="Rectangle">
                <use fill="#D8D8D8" fill-rule="evenodd" xlink:href="#path-1"></use>
                <rect stroke="#979797" stroke-width="1" x="266.5" y="247.5" width="492" height="309" rx="17"></rect>
            </g>
            <path d="M234.441101,592.796875 C235.854342,583.520217 244.605484,576 253.999477,576 L771.000523,576 C780.389075,576 789.001435,583.540216 790.237405,592.846345 L819.762595,815.153655 C820.99828,824.457634 814.391256,832 805.006195,832 L214.993805,832 C205.608385,832 199.146075,824.477047 200.558899,815.203125 L234.441101,592.796875 Z" id="Rectangle" fill="#D2D2D2"></path>
            <g id="Rectangle">
                <use fill="#C6C6C6" fill-rule="evenodd" xlink:href="#path-2"></use>
                <path stroke="#CFCBCB" stroke-width="2" d="M261.629984,605.318577 C263.079605,596.536948 271.519469,589.377823 280.419474,589.377823 L744.123732,589.377823 C753.019513,589.377823 761.347069,596.54841 762.66898,605.343643 L783.483506,743.831439 C784.787996,752.51076 778.773131,759.5 770.007698,759.5 L251.992302,759.5 C243.223368,759.5 237.326597,752.545613 238.756244,743.884986 L261.629984,605.318577 Z"></path>
            </g>
            <path d="M810.353002,610.822093 C809.036155,601.531507 815.580573,594 824.97062,594 L1147.51325,594 C1156.90318,594 1165.37841,601.5603 1166.44313,610.885858 L1185.00046,773.423547 C1186.06521,782.749349 1179.30903,790.309405 1169.93311,790.309405 L852.78876,790.309405 C843.402543,790.309405 834.724035,782.764068 833.409149,773.487313 L810.353002,610.822093 Z" id="Rectangle" fill="#FF8585"></path>
            <path d="M814.288076,609.840356 C812.9698,600.539684 819.517769,593 828.893147,593 L1147.8232,593 C1157.20763,593 1165.67808,600.557523 1166.74275,609.882622 L1185.07247,770.426784 C1186.13702,779.750798 1179.39712,787.309405 1170.0013,787.309405 L856.441212,787.309405 C847.053092,787.309405 838.375529,779.781622 837.055566,770.469049 L814.288076,609.840356 Z" id="Rectangle" fill="#E4E0E0"></path>
            <rect id="Rectangle-5" fill="#7B7676" x="283" y="593" width="32.6573905" height="18" rx="9"></rect>
            <rect id="Rectangle-5" fill="#7B7676" x="322" y="593" width="32.6573905" height="18" rx="9"></rect>
            <rect id="Rectangle-5" fill="#7B7676" x="361" y="593" width="32.6573905" height="18" rx="9"></rect>
            <rect id="Rectangle-5" fill="#7B7676" x="399" y="593" width="32.6573905" height="18" rx="9"></rect>
            <rect id="Rectangle-5" fill="#7B7676" x="437" y="593" width="32.6573905" height="18" rx="9"></rect>
            <rect id="Rectangle-5" fill="#7B7676" x="476" y="593" width="32.6573905" height="18" rx="9"></rect>
            <rect id="Rectangle-5" fill="#7B7676" x="514" y="593" width="32.6573905" height="18" rx="9"></rect>
            <rect id="Rectangle-5" fill="#7B7676" x="553" y="593" width="32.6573905" height="18" rx="9"></rect>
            <rect id="Rectangle-5" fill="#7B7676" x="592" y="593" width="32.6573905" height="18" rx="9"></rect>
            <rect id="Rectangle-5" fill="#7B7676" x="630" y="593" width="32.6573905" height="18" rx="9"></rect>
            <rect id="Rectangle-5" fill="#7B7676" x="669" y="593" width="32.6573905" height="18" rx="9"></rect>
            <rect id="Rectangle-5" fill="#7B7676" x="708" y="593" width="32.6573905" height="18" rx="9"></rect>
            <rect id="Rectangle-5" fill="#7B7676" x="310.763335" y="619.715377" width="33.6901745" height="34" rx="16.8450872"></rect>
            <rect id="Rectangle-5" fill="#7B7676" x="270.763335" y="619.715377" width="33.6901745" height="34" rx="16.8450872"></rect>
            <rect id="Rectangle-5" fill="#7B7676" x="350.996702" y="619.715377" width="33.6901745" height="34" rx="16.8450872"></rect>
            <rect id="Rectangle-2" fill="#979292" transform="translate(761.000000, 967.000000) rotate(49.000000) translate(-761.000000, -967.000000) " x="734" y="950" width="54" height="34" rx="17"></rect>
            <ellipse id="Oval-2-Copy" fill="#A9A1A1" cx="755" cy="919.5" rx="51" ry="53.5"></ellipse>
            <path d="M763,919.5 C763,889.952766 748.179634,866.359398 744.921644,867.044453 C721.582214,871.952019 704,893.572086 704,919.5 C704,940.262122 715.274099,958.261957 731.750553,967.130128 C738.722264,970.882533 763,949.047234 763,919.5 Z" id="Oval-2-Copy" fill="#938F8F"></path>
            <rect id="Rectangle-5" fill="#7B7676" x="393.23007" y="619.715377" width="33.6901745" height="34" rx="16.8450872"></rect>
            <rect id="Rectangle-5" fill="#7B7676" x="434.431813" y="619.715377" width="33.6901745" height="34" rx="16.8450872"></rect>
            <rect id="Rectangle-5" fill="#7B7676" x="475.633556" y="619.715377" width="33.6901745" height="34" rx="16.8450872"></rect>
            <rect id="Rectangle-5" fill="#7B7676" x="521.068667" y="619.715377" width="33.6901745" height="34" rx="16.8450872"></rect>
            <rect id="Rectangle-5" fill="#7B7676" x="565.302035" y="619.715377" width="33.6901745" height="34" rx="16.8450872"></rect>
            <rect id="Rectangle-5" fill="#7B7676" x="608.535403" y="619.715377" width="33.6901745" height="34" rx="16.8450872"></rect>
            <rect id="Rectangle-5" fill="#7B7676" x="651.737146" y="619.715377" width="33.6901745" height="34" rx="16.8450872"></rect>
            <rect id="Rectangle-5" fill="#7B7676" x="697.894056" y="619.715377" width="54" height="34" rx="17"></rect>
            <rect id="Rectangle-5" fill="#7B7676" x="305.815477" y="658.896233" width="34.5212959" height="35.6382866" rx="17"></rect>
            <rect id="Rectangle-5" fill="#7B7676" x="264.828695" y="658.896233" width="34.5212959" height="35.6382866" rx="17"></rect>
            <rect id="Rectangle-5" fill="#7B7676" x="347.041384" y="658.896233" width="34.5212959" height="35.6382866" rx="17"></rect>
            <rect id="Rectangle-5" fill="#7B7676" x="390.31663" y="658.896233" width="34.5212959" height="35.6382866" rx="17"></rect>
            <rect id="Rectangle-5" fill="#7B7676" x="432.534802" y="658.896233" width="34.5212959" height="35.6382866" rx="17"></rect>
            <rect id="Rectangle-5" fill="#7B7676" x="474.752973" y="658.896233" width="34.5212959" height="35.6382866" rx="17"></rect>
            <rect id="Rectangle-5" fill="#7B7676" x="521.308948" y="658.896233" width="34.5212959" height="35.6382866" rx="17"></rect>
            <rect id="Rectangle-5" fill="#7B7676" x="566.633533" y="658.896233" width="34.5212959" height="35.6382866" rx="17"></rect>
            <rect id="Rectangle-5" fill="#7B7676" x="610.933449" y="658.896233" width="34.5212959" height="35.6382866" rx="17"></rect>
            <rect id="Rectangle-5" fill="#7B7676" x="655.200959" y="658.896233" width="34.5212959" height="35.6382866" rx="17"></rect>
            <rect id="Rectangle-5" fill="#7B7676" x="335.815477" y="698.896233" width="34.5212959" height="35.6382866" rx="17"></rect>
            <rect id="Rectangle-5" fill="#7B7676" x="294.828695" y="698.896233" width="34.5212959" height="35.6382866" rx="17"></rect>
            <rect id="Rectangle-5" fill="#7B7676" x="294.828695" y="698.896233" width="34.5212959" height="35.6382866" rx="17"></rect>
            <path d="M248.828695,707.889278 C248.828695,702.922557 252.861009,698.896233 257.823107,698.896233 L282.491674,698.896233 C287.459151,698.896233 291.486086,702.932396 291.486086,707.889278 L291.486086,725.541475 C291.486086,730.508197 287.453772,734.53452 282.491674,734.53452 L257.823107,734.53452 C252.85563,734.53452 248.828695,730.498357 248.828695,725.541475 L248.828695,707.889278 Z" id="Rectangle-5" fill="#7B7676"></path>
            <rect id="Rectangle-5" fill="#7B7676" x="377.041384" y="698.896233" width="34.5212959" height="35.6382866" rx="17"></rect>
            <rect id="Rectangle-5" fill="#7B7676" x="420.31663" y="698.896233" width="34.5212959" height="35.6382866" rx="17"></rect>
            <rect id="Rectangle-5" fill="#7B7676" x="462.534802" y="698.896233" width="34.5212959" height="35.6382866" rx="17"></rect>
            <rect id="Rectangle-5" fill="#7B7676" x="504.752973" y="698.896233" width="34.5212959" height="35.6382866" rx="17"></rect>
            <rect id="Rectangle-5" fill="#7B7676" x="551.308948" y="698.896233" width="34.5212959" height="35.6382866" rx="17"></rect>
            <rect id="Rectangle-5" fill="#7B7676" x="596.633533" y="698.896233" width="34.5212959" height="35.6382866" rx="17"></rect>
            <rect id="Rectangle-5" fill="#7B7676" x="640.933449" y="698.896233" width="34.5212959" height="35.6382866" rx="17"></rect>
            <rect id="Rectangle-5" fill="#7B7676" x="685.200959" y="698.896233" width="34.5212959" height="35.6382866" rx="17"></rect>
            <path d="M98,1021 C98,1021 75,974.89797 158,958 C241,941.10203 678.5,876.5 678.5,876.5 C678.5,876.5 702.5,871.5 711,911 C719.5,950.5 701.5,958 701.5,958 L168.5,1087 L98,1021 Z" id="Path-3" fill="#C49E77"></path>
            <path d="M116,1024 C116,1024 93,977.89797 176,961 C259,944.10203 696.5,879.5 696.5,879.5 C696.5,879.5 720.5,874.5 729,914 C737.5,953.5 719.5,961 719.5,961 L186.5,1090 L116,1024 Z" id="Path-3" fill="#9A82C3"></path>
            <path d="M702.49654,667.889278 C702.49654,662.922557 706.520462,658.896233 711.494327,658.896233 L748.830908,658.896233 C753.800249,658.896233 758.310477,662.894076 758.905472,667.831358 L765.923223,726.064875 C766.517911,730.999608 762.970096,735 758.003771,735 L743.869186,735 C741.109904,735 738.652309,732.76676 738.380582,730.017861 L735.265714,698.506706 C735.04886,696.312928 733.086244,694.53452 730.870594,694.53452 L711.493702,694.53452 C706.524706,694.53452 702.49654,690.498357 702.49654,685.541475 L702.49654,667.889278 Z" id="Rectangle-5" fill="#7B7676"></path>
            <path d="M512,1121 C592.401561,1121 628.971794,1083.04468 666.5,1024 C686.120621,993.130062 714.474648,977.2434 726.5,952.5 C733.830592,937.416552 726.9859,921.518049 726.5,904.5 C726.0141,887.481951 733,881.732281 733,871 C733,732.928813 649.968727,716.5 512,716.5 C374.031273,716.5 282,732.928813 282,871 C282,875.566532 291.97098,879.890263 294,885.5 C296.02902,891.109737 289.546638,897.214113 294,898 C319.5,902.5 267.5,963.5 300,997 C332.5,1030.5 424.147082,1121 512,1121 Z" id="Oval" fill="#846BAF"></path>
            <path d="M512,1102 C639.577777,1102 733,998.577777 733,871 C733,743.422223 639.577777,640 512,640 C384.422223,640 291,743.422223 291,871 C291,998.577777 384.422223,1102 512,1102 Z" id="Oval" fill="#A9A1A1"></path>
            <path d="M708.134996,839.202569 C710.680763,808.653374 722.463287,795.738978 730.634996,812.202569 C738.806706,828.66616 736.634996,903.702569 736.634996,903.702569 C736.634996,903.702569 731.585812,954.265243 720.634996,932.202569 C716.23623,923.340347 722.83532,904.653033 720.634996,891.702569 C718.434673,878.752105 706.611824,857.480643 708.134996,839.202569 Z" id="Path-2-Copy" fill="#999090" transform="translate(722.448285, 871.387892) scale(-1, 1) translate(-722.448285, -871.387892) "></path>
            <path d="M512.5,972.5 C603.891466,972.5 677,988.5 677,988.5 C677,988.5 685.659723,935.551907 698,899 C710.340277,862.448093 729.5,858.367389 729.5,838 C729.5,710.422223 640.077777,632.5 512.5,632.5 C384.922223,632.5 288.5,710.422223 288.5,838 C288.5,854.482346 306.910297,868.285278 322.5,899 C338.089703,929.714722 357.5,988.5 357.5,988.5 C357.5,988.5 421.108534,972.5 512.5,972.5 Z" id="Oval" fill="#7C6F8E"></path>
            <path d="M512.5,972.5 C582.087877,972.5 641.075856,980.776323 665.261044,985.202494 C672.838856,986.589322 685.659723,935.551907 698,899 C710.340277,862.448093 729.5,858.367389 729.5,838 C729.5,710.422223 640.077777,781.5 512.5,781.5 C384.922223,781.5 288.5,710.422223 288.5,838 C288.5,854.482346 306.910297,868.285278 322.5,899 C338.089703,929.714722 357.5,988.5 357.5,988.5 C357.5,988.5 421.108534,972.5 512.5,972.5 Z" id="Oval" fill="#7A6D8B"></path>
            <path d="M357.788408,683.029387 C314.672797,718.542807 288.5,771.532165 288.5,838 C288.5,854.482346 306.910297,868.285278 322.5,899 C338.089703,929.714722 357.5,988.5 357.5,988.5 C357.5,988.5 383.135507,982.051681 425.240448,977.342326 C437.328985,975.990246 439.5,924.5 381,818 C322.5,711.5 377.642711,666.675817 357.788408,683.029387 Z" id="Oval" fill="#7B6E8D"></path>
            <path d="M656.788408,682.029387 C613.672797,717.542807 587.5,770.532165 587.5,837 C587.5,853.482346 605.910297,867.285278 621.5,898 C637.089703,928.714722 656.5,987.5 656.5,987.5 C656.5,987.5 682.135507,981.051681 724.240448,976.342326 C736.328985,974.990246 738.5,923.5 680,817 C621.5,710.5 676.642711,665.675817 656.788408,682.029387 Z" id="Oval" fill="#7B6E8D" transform="translate(659.322062, 833.125971) scale(-1, 1) translate(-659.322062, -833.125971) "></path>
            <path d="M512.5,972.5 C582.087877,972.5 641.075856,980.776323 665.261044,985.202494 C672.838856,986.589322 685.659723,935.551907 698,899 C710.340277,862.448093 636.577777,937 509,937 C381.422223,937 306.910297,868.285278 322.5,899 C338.089703,929.714722 357.5,988.5 357.5,988.5 C357.5,988.5 421.108534,972.5 512.5,972.5 Z" id="Oval" fill="#786D88"></path>
            <path d="M512.5,1494 C662.997594,1494 785,1371.99759 785,1221.5 C785,1071.00241 662.997594,997.5 512.5,997.5 C362.002406,997.5 240,1121.14001 240,1221.5 C240,1371.99759 362.002406,1494 512.5,1494 Z" id="Oval" stroke="#979797" fill="#9176CA"></path>
            <path d="M280.134996,839.202569 C282.680763,808.653374 294.463287,795.738978 302.634996,812.202569 C310.806706,828.66616 308.634996,903.702569 308.634996,903.702569 C308.634996,903.702569 303.585812,954.265243 292.634996,932.202569 C288.23623,923.340347 294.83532,904.653033 292.634996,891.702569 C290.434673,878.752105 278.611824,857.480643 280.134996,839.202569 Z" id="Path-2" fill="#847E7E" opacity="0.512115036"></path>
            <path d="M274.134996,839.202569 C276.680763,808.653374 288.463287,795.738978 296.634996,812.202569 C304.806706,828.66616 302.634996,903.702569 302.634996,903.702569 C302.634996,903.702569 297.585812,954.265243 286.634996,932.202569 C282.23623,923.340347 288.83532,904.653033 286.634996,891.702569 C284.434673,878.752105 272.611824,857.480643 274.134996,839.202569 Z" id="Path-2" fill="#A9A1A1"></path>
            <path d="M715.134996,839.202569 C717.680763,808.653374 729.463287,795.738978 737.634996,812.202569 C745.806706,828.66616 743.634996,903.702569 743.634996,903.702569 C743.634996,903.702569 738.585812,954.265243 727.634996,932.202569 C723.23623,923.340347 729.83532,904.653033 727.634996,891.702569 C725.434673,878.752105 713.611824,857.480643 715.134996,839.202569 Z" id="Path-2-Copy" fill="#A9A1A1" transform="translate(729.448285, 871.387892) scale(-1, 1) translate(-729.448285, -871.387892) "></path>
            <ellipse id="Oval-2" fill="#A9A1A1" cx="880.5" cy="917.5" rx="63.5" ry="66.5"></ellipse>
            <path d="M880.5,984 C915.570082,984 944,954.226936 944,917.5 C944,880.773064 915.570082,851 880.5,851 C845.429918,851 917,880.773064 917,917.5 C917,954.226936 845.429918,984 880.5,984 Z" id="Oval-2" fill="#A29999"></path>
            <rect id="Rectangle-2" fill="#979292" x="814" y="900" width="54" height="34" rx="17"></rect>
            <rect id="Rectangle-3" fill="#9A82C3" x="821" y="961" width="124" height="95" rx="17"></rect>
            <rect id="Rectangle-3" fill="#846BAF" x="821" y="961" width="33" height="95" rx="16.5"></rect>
            <rect id="Rectangle-3" fill="#846BAF" x="911" y="961" width="33" height="95" rx="16.5"></rect>
            <circle id="Oval-3" fill="#747373" cx="512" cy="233" r="6"></circle>
            <polygon id="Path-4" fill="#C49E77" opacity="0.689821105" points="165.5 623.5 137 785 139.5 812 155.5 785 184 628"></polygon>
            <polygon id="Path-4" fill="#FCFDB8" points="162.5 620.5 134 782 152.5 782 181.5 620.5"></polygon>
            <polygon id="Path-4" fill="#80807D" points="141 782 145.5 782 175 620.5 169.5 620.5"></polygon>
            <path d="M162.5,619 L160.104735,634.073166 L179,636.5 L181.5,620.5 C177.283317,616.45311 168.047558,615.480627 162.5,619 Z" id="Path-4" fill="#E8ACAC"></path>
            <path d="M175.5,636 L179,636.5 L181.5,620.5 C180.612522,619.648258 179.502714,618.932703 178.251755,618.366549 L175.5,636 Z" id="Path-4" fill="#CB9292"></path>
            <polygon id="Path-5" fill="#BE9F7F" points="134 782 140 804.5 152 782"></polygon>
            <polygon id="Path-5" fill="#AB8F71" points="140 804.5 152 782 146.5 782"></polygon>
            <polygon id="Path-5" fill="#7A7672" points="137.5 795.784192 140 804.5 144.648431 795.784192"></polygon>
            <path d="M991.5,605 L1018,765" id="Path-6" stroke="#C6C3C3" stroke-width="2"></path>
        </g>
    </g>
</svg>